<svg width="60" height="60" viewBox="0 0 60 60" fill="none" xmlns="http://www.w3.org/2000/svg">
<path d="M30.5245 57.5C30.1614 57.5 29.8117 57.5 29.4486 57.5C27.9962 57.2714 26.9069 56.451 25.9117 55.429C25.1048 54.5952 24.2441 53.8152 23.4103 52.9948C22.9531 52.551 22.4286 52.3762 21.7966 52.4704C20.4383 52.6721 19.0666 52.8469 17.7083 53.0621C14.7766 53.5193 12.5038 51.9593 11.9121 49.0545C11.6431 47.7097 11.4011 46.3514 11.1993 44.9931C11.0783 44.1728 10.6883 43.6214 9.94864 43.2583C8.7383 42.6531 7.5414 42.0076 6.34451 41.3621C3.78934 39.9769 2.9421 37.3545 4.19279 34.7321C4.79796 33.468 5.40313 32.2173 6.0352 30.98C6.3714 30.3211 6.3714 29.7025 6.0352 29.03C5.41658 27.8063 4.81141 26.569 4.21968 25.3183C2.9421 22.6556 3.80279 20.0197 6.41175 18.6211C7.62209 17.9756 8.83244 17.3166 10.0562 16.698C10.7286 16.3618 11.0648 15.8373 11.1859 15.1111C11.4011 13.7932 11.6297 12.4618 11.8717 11.1439C12.4097 8.18525 14.5345 6.58491 17.5066 6.92111C18.8783 7.08249 20.2366 7.28422 21.5948 7.51284C22.3479 7.63387 22.9531 7.47249 23.5045 6.92111C24.4862 5.93939 25.5083 4.97112 26.5169 4.00284C28.6148 1.99905 31.3852 1.99905 33.4831 4.00284C34.5186 4.98456 35.5541 5.97974 36.5762 6.98836C37.0469 7.4456 37.5983 7.62042 38.2438 7.52629C39.602 7.32456 40.9738 7.13629 42.332 6.93456C45.2369 6.50422 47.4962 8.05077 48.0879 10.9287C48.3703 12.3004 48.5989 13.6721 48.8141 15.0439C48.9351 15.8104 49.2848 16.3483 49.9975 16.7114C51.1944 17.3166 52.3644 17.9621 53.5479 18.5942C56.2375 20.0332 57.0848 22.6556 55.7534 25.4125C55.1751 26.5959 54.6103 27.7928 54.0051 28.9763C53.642 29.6756 53.642 30.3211 53.9917 31.0204C54.6237 32.2442 55.2155 33.4814 55.8072 34.7321C57.0579 37.3545 56.2106 39.9769 53.6555 41.3621C52.4317 42.0211 51.1944 42.68 49.9572 43.3121C49.2848 43.6483 48.9351 44.1593 48.8141 44.8855C48.5989 46.2035 48.3703 47.5348 48.1417 48.8528C47.6038 51.8248 45.4386 53.4521 42.4531 53.089C41.0814 52.9276 39.7231 52.7259 38.3648 52.4973C37.6386 52.3762 37.0334 52.551 36.5089 53.0755C35.7155 53.869 34.8683 54.6221 34.0883 55.429C33.0796 56.451 31.9769 57.2579 30.5245 57.5ZM42.1572 19.6163C42.0362 18.648 41.3234 17.9487 40.4358 17.9487C39.8845 17.9487 39.5079 18.2445 39.1314 18.6076C32.2862 25.4663 25.441 32.3114 18.5959 39.1566C18.4748 39.2776 18.3404 39.4121 18.2328 39.56C17.8831 40.0711 17.8293 40.6224 18.1117 41.1873C18.3941 41.7386 18.8648 42.0345 19.4969 42.048C20.1155 42.0749 20.519 41.7118 20.9224 41.3083C26.9607 35.27 32.9855 29.2452 39.0238 23.2069C39.8307 22.4001 40.6645 21.6066 41.4445 20.7728C41.7538 20.4366 41.9286 20.0063 42.1572 19.6163ZM36.3207 32.6611C33.0931 32.6745 30.511 35.2835 30.5245 38.5245C30.5379 41.6714 33.1603 44.2804 36.3207 44.2804C39.5214 44.2804 42.1438 41.6445 42.1303 38.4304C42.1303 35.2162 39.5348 32.6476 36.3207 32.6611ZM23.6659 27.349C26.8665 27.3356 29.4621 24.7401 29.4621 21.5394C29.4621 18.3387 26.7993 15.7028 23.6121 15.7297C20.4248 15.7566 17.8428 18.3925 17.8562 21.5797C17.8562 24.7804 20.4652 27.3625 23.6659 27.349Z" fill="white"/>
<path d="M36.3476 41.0798C34.8818 41.0933 33.7252 39.9502 33.6983 38.4843C33.6714 37.0319 34.8952 35.8081 36.3476 35.8081C37.7866 35.8216 38.97 37.0184 38.9835 38.444C38.9835 39.8964 37.8135 41.0798 36.3476 41.0798Z" fill="white"/>
<path d="M26.2881 21.5257C26.3015 22.9512 25.1181 24.1616 23.6926 24.1885C22.2536 24.2154 21.0164 22.9781 21.0164 21.5392C21.0164 20.0867 22.1998 18.9302 23.6522 18.9167C25.1046 18.9167 26.2612 20.0733 26.2881 21.5257Z" fill="white"/>
</svg>
