<svg width="60" height="60" viewBox="0 0 60 60" fill="none" xmlns="http://www.w3.org/2000/svg">
<path d="M12.0492 57.5C13.0285 53.6664 13.966 49.9587 14.9174 46.251C15.6589 43.3687 16.3725 40.4865 17.128 37.6043C17.2399 37.1566 17.184 36.9047 16.8202 36.6109C11.7973 32.3855 6.8024 28.1322 1.79349 23.8928C1.66757 23.7948 1.52766 23.6969 1.40173 23.613C1.42972 23.571 1.4577 23.529 1.48568 23.473C2.98276 23.3751 4.49382 23.2632 5.9909 23.1652C10.3422 22.8714 14.7075 22.5916 19.0588 22.3118C19.8843 22.2558 20.6958 22.1718 21.5213 22.1718C21.983 22.1718 22.1929 22.0039 22.3608 21.5702C24.7953 15.428 27.2438 9.29979 29.6783 3.17158C29.7482 2.9897 29.8322 2.79382 29.9721 2.5C30.084 2.76584 30.168 2.93373 30.2379 3.11562C32.6864 9.25782 35.1489 15.414 37.5834 21.5562C37.7513 21.99 37.9611 22.1299 38.4229 22.1578C42.7742 22.4237 47.1395 22.7175 51.4908 23.0113C53.4636 23.1372 55.4363 23.2632 57.4091 23.3891C57.7589 23.4171 58.1087 23.4451 58.4585 23.473C58.5004 23.529 58.5424 23.585 58.5984 23.6409C58.4585 23.7109 58.2906 23.7669 58.1786 23.8788C53.1837 28.1042 48.1888 32.3296 43.1799 36.541C42.7882 36.8628 42.6762 37.1426 42.8161 37.6603C44.4811 44.0683 46.1041 50.4763 47.7411 56.8984C47.7831 57.0523 47.8111 57.2202 47.867 57.472C47.6152 57.3181 47.4193 57.2062 47.2514 57.0943C41.6549 53.5684 36.0583 50.0426 30.4758 46.5028C30.112 46.2649 29.8601 46.251 29.4824 46.4888C23.8858 50.0426 18.2613 53.5824 12.6508 57.1082C12.4829 57.2342 12.301 57.3321 12.0492 57.5Z" fill="white"/>
</svg>
