<svg width="61" height="60" viewBox="0 0 61 60" fill="none" xmlns="http://www.w3.org/2000/svg">
<path d="M14.6779 2.5C15.7645 2.74147 16.8109 3.06344 17.6829 3.80127C17.8036 3.9086 17.9378 4.0025 18.0451 4.10982C20.5135 6.57822 22.9953 9.0332 25.4503 11.515C27.2747 13.3663 27.5833 15.9018 26.3089 18.008C25.732 18.9604 24.9137 19.6312 23.8673 20.0068C22.3514 20.5568 21.1843 21.4825 20.5269 22.985C20.0976 23.9911 20.0305 25.0107 20.3123 26.0705C21.0501 28.834 22.566 31.1548 24.4173 33.2744C26.6308 35.8233 29.1663 37.9832 32.225 39.4857C33.4994 40.1162 34.8141 40.6528 36.2898 40.4516C38.235 40.1833 39.724 39.2308 40.4887 37.3795C40.9851 36.1587 41.6022 35.0721 42.7827 34.3745C44.7011 33.2476 47.1292 33.3952 48.7793 34.8977C50.2818 36.266 51.7038 37.7417 53.1392 39.1905C54.4539 40.5052 55.8223 41.7797 57.043 43.1883C58.5858 44.9457 58.626 47.7092 57.2711 49.6141C56.9894 50.0032 56.6808 50.3788 56.3455 50.7142C54.8966 52.1764 53.4075 53.5984 51.9855 55.1009C50.4696 56.6974 48.6049 57.3949 46.4719 57.4889C44.1779 57.5828 41.9912 57.073 39.8448 56.3486C35.619 54.9131 31.8091 52.6996 28.2004 50.1239C22.2172 45.8445 16.9719 40.7869 12.4644 34.9916C9.13742 30.7256 6.29339 26.1644 4.536 21.013C3.77134 18.7726 3.24815 16.4652 3.36889 14.0639C3.47621 11.9577 4.16038 10.1332 5.72996 8.65757C7.04465 7.40996 8.31909 6.13552 9.5667 4.82083C10.6667 3.66713 11.8473 2.71464 13.4974 2.5C13.8864 2.5 14.2754 2.5 14.6779 2.5Z" fill="white"/>
</svg>
