<svg width="61" height="60" viewBox="0 0 61 60" fill="none" xmlns="http://www.w3.org/2000/svg">
<path d="M12.4176 57.5003C10.7279 57.5003 9.0526 57.5003 7.37725 57.5003C6.00261 56.9991 5.55872 55.9968 5.55872 54.5792C5.58735 46.5175 5.57304 38.4414 5.57304 30.3797C5.57304 30.1506 5.57304 29.9358 5.57304 29.7067C6.33196 29.8213 7.01927 29.9788 7.70659 29.9931C10.0979 30.0218 12.5035 30.0218 14.8948 30.0074C16.026 30.0074 17.0857 29.7067 18.0737 29.1483C18.5176 28.8905 18.9328 28.5898 19.3767 28.2891C20.9089 29.6351 22.7131 30.0504 24.7035 30.0218C28.942 29.9788 33.1804 30.0218 37.4189 30.0074C38.006 30.0074 38.5931 29.9358 39.1659 29.8213C40.3257 29.6065 41.3281 29.0194 42.2588 28.2605C43.8769 29.7067 45.7813 30.1077 47.8576 30.0218C49.0318 29.9788 50.2203 30.0218 51.3945 30.0074C52.898 29.9931 54.4015 30.122 55.862 29.6781C55.8907 29.6781 55.9193 29.7067 55.9909 29.7497C55.9909 29.9502 55.9909 30.1936 55.9909 30.4227C55.9909 38.4701 55.9766 46.5318 56.0052 54.5792C56.0052 55.9968 55.5613 56.9991 54.1867 57.5003C45.6238 57.5003 37.0753 57.5003 28.5267 57.5003C28.5124 57.2712 28.4981 57.0421 28.4981 56.7987C28.4981 50.3407 28.4981 43.8827 28.4981 37.4248C28.4981 37.2243 28.4981 37.0238 28.4981 36.8377C28.4121 35.506 27.4957 34.6039 26.164 34.6039C22.3695 34.5896 18.5749 34.5896 14.7803 34.6039C13.7063 34.6039 12.8615 35.2053 12.5751 36.1647C12.4749 36.5227 12.4463 36.9093 12.4463 37.2816C12.4319 43.7968 12.4463 50.3121 12.4463 56.813C12.4319 57.0278 12.4176 57.2569 12.4176 57.5003ZM41.0846 46.0306C42.9318 46.0306 44.7647 46.0306 46.6118 46.0306C48.1583 46.0306 49.0891 45.0999 49.1034 43.5677C49.1177 41.4055 49.1177 39.2433 49.1034 37.0668C49.1034 35.5203 48.1583 34.5896 46.6262 34.5896C42.9175 34.5896 39.2231 34.5896 35.5145 34.5896C33.9823 34.5896 33.0516 35.5203 33.0516 37.0811C33.0372 39.229 33.0372 41.3769 33.0516 43.5248C33.0516 45.0999 33.9823 46.0306 35.5574 46.0306C37.4046 46.0306 39.2518 46.0306 41.0846 46.0306Z" fill="white"/>
<path d="M3.28181 20.8717C3.48228 20.8573 3.66843 20.843 3.8689 20.843C21.8108 20.843 39.7385 20.843 57.6804 20.843C57.8809 20.843 58.067 20.8573 58.2675 20.8717C58.2675 21.8454 58.2675 22.8047 58.2675 23.7641C58.2389 23.8214 58.1959 23.893 58.1816 23.9646C57.6518 26.2414 56.0051 27.659 53.6997 27.7019C51.3943 27.7449 49.0889 27.7449 46.7692 27.7019C44.5354 27.659 42.8744 26.27 42.3303 24.1078C42.3016 23.9932 42.2586 23.8787 42.2157 23.7069C41.5284 26.4705 39.9103 27.7162 37.1324 27.7162C32.8509 27.7162 28.5838 27.7162 24.3024 27.7162C23.8155 27.7162 23.3287 27.7019 22.8705 27.5874C20.8801 27.0862 19.7489 25.7545 19.3193 23.7069C19.262 23.893 19.2191 24.0076 19.1904 24.1221C18.632 26.3273 16.9423 27.6876 14.6512 27.7162C12.4175 27.7449 10.1837 27.7305 7.93555 27.7162C6.47499 27.7019 5.20058 27.2007 4.32711 26.0266C3.84026 25.3679 3.61115 24.5374 3.25317 23.7785C3.28181 22.8047 3.28181 21.8454 3.28181 20.8717Z" fill="white"/>
<path d="M36.2589 2.51432C36.7028 4.79107 37.1467 7.06782 37.6049 9.34457C38.1777 12.2514 38.7648 15.1582 39.3518 18.065C39.3805 18.1938 39.3805 18.337 39.3805 18.5089C33.6385 18.5089 27.9251 18.5089 22.1259 18.5089C22.3406 17.4063 22.5411 16.3467 22.7559 15.2727C23.6007 11.0915 24.4312 6.89599 25.2761 2.71479C25.2904 2.64319 25.2904 2.5716 25.2904 2.5C28.9561 2.51432 32.6075 2.51432 36.2589 2.51432Z" fill="white"/>
<path d="M20.6796 2.51416C20.293 4.41861 19.8921 6.32306 19.5055 8.24184C18.8468 11.5209 18.2024 14.8 17.5437 18.0791C17.5151 18.2223 17.4721 18.3512 17.4292 18.523C12.9329 18.523 8.4224 18.523 3.8689 18.523C4.1696 17.4777 4.45599 16.4611 4.74237 15.4587C5.75903 11.8789 6.80433 8.31343 7.79236 4.73363C8.09306 3.64538 8.63719 2.85782 9.73976 2.52848C13.3768 2.51416 17.0282 2.51416 20.6796 2.51416Z" fill="white"/>
<path d="M51.8238 2.51416C52.9264 2.8435 53.4705 3.63106 53.7712 4.71931C55.0027 9.14395 56.2771 13.5543 57.5372 17.9646C57.5801 18.1364 57.6231 18.3082 57.6804 18.5087C53.1412 18.5087 48.6593 18.5087 44.1058 18.5087C43.848 17.2486 43.5903 15.9742 43.3325 14.6998C42.5307 10.7047 41.7431 6.70968 40.9412 2.71463C40.9269 2.64303 40.8983 2.58576 40.8696 2.51416C44.521 2.51416 48.1724 2.51416 51.8238 2.51416Z" fill="white"/>
</svg>
